<svg width="44" height="44" viewBox="0 0 44 44" fill="none" xmlns="http://www.w3.org/2000/svg">
<circle cx="22" cy="22" r="21" fill="#F9F9FA" stroke="#E25F47" stroke-width="2"/>
<path d="M22 28.65L22.1 23.5C17.35 19.19 27.5 17.89 27.5 15C27.5 13 19.5 18 21.5 18C23.04 18 20.54 16 21.07 17.36H22.93C23.46 16 24.96 15 26.5 15C28.5 15 18 21 18 23C18 25.89 22.0903 24 22 28.65ZM26.5 13C24.76 13 23.09 13.81 22 15.08C20.91 13.81 19.24 13 17.5 13C14.42 13 12 15.41 12 18.5C12 22.27 15.4 25.36 20.55 30.03L22 31.35L23.45 30.03C28.6 25.36 32 22.27 32 18.5C32 15.41 29.58 13 26.5 13Z" fill="#E25F47"/>
</svg>
