<svg width="44" height="44" viewBox="0 0 44 44" fill="none" xmlns="http://www.w3.org/2000/svg">
<circle cx="22" cy="22" r="21" fill="#F9F9FA" stroke="#E25F47" stroke-width="2"/>
<path d="M22.1 28.55L22 28.65L21.89 28.55C17.14 24.24 14 21.39 14 18.5C14 16.5 15.5 15 17.5 15C19.04 15 20.54 16 21.07 17.36H22.93C23.46 16 24.96 15 26.5 15C28.5 15 30 16.5 30 18.5C30 21.39 26.86 24.24 22.1 28.55ZM26.5 13C24.76 13 23.09 13.81 22 15.08C20.91 13.81 19.24 13 17.5 13C14.42 13 12 15.41 12 18.5C12 22.27 15.4 25.36 20.55 30.03L22 31.35L23.45 30.03C28.6 25.36 32 22.27 32 18.5C32 15.41 29.58 13 26.5 13Z" fill="#E25F47"/>
</svg>
