<svg width="24" height="24" viewBox="0 0 24 24" fill="none" xmlns="http://www.w3.org/2000/svg">
<circle cx="12" cy="12" r="11" fill="#F9F9FA" stroke="#E25F47" stroke-width="2"/>
<path d="M12 15.6272L12.0546 12.8182C9.46365 10.4672 15 9.75815 15 8.18179C15 7.09088 10.6364 9.81815 11.7273 9.81815C12.5673 9.81815 11.2037 8.72725 11.4927 9.46906H12.5073C12.7964 8.72725 13.6146 8.18179 14.4546 8.18179C15.5455 8.18179 9.8182 11.4545 9.8182 12.5454C9.8182 14.1218 12.0493 13.0909 12 15.6272ZM14.4546 7.09088C13.5055 7.09088 12.5946 7.5327 12 8.22543C11.4055 7.5327 10.4946 7.09088 9.54547 7.09088C7.86547 7.09088 6.54547 8.40543 6.54547 10.0909C6.54547 12.1472 8.40002 13.8327 11.2091 16.38L12 17.1L12.7909 16.38C15.6 13.8327 17.4546 12.1472 17.4546 10.0909C17.4546 8.40543 16.1346 7.09088 14.4546 7.09088Z" fill="#E25F47"/>
</svg>
