<svg width="44" height="44" viewBox="0 0 44 44" fill="none" xmlns="http://www.w3.org/2000/svg">
<circle cx="22" cy="22" r="21" fill="#F9F9FA" stroke="#E25F47" stroke-width="2"/>
<path d="M26.75 31C26.348 31 25.9975 30.8505 25.6985 30.5515C25.3995 30.2525 25.25 29.902 25.25 29.5V14.5C25.25 14.098 25.3995 13.7475 25.6985 13.4485C25.9975 13.1495 26.348 13 26.75 13H29C29.402 13 29.7525 13.1495 30.0515 13.4485C30.3505 13.7475 30.5 14.098 30.5 14.5V29.5C30.5 29.902 30.3505 30.2525 30.0515 30.5515C29.7525 30.8505 29.402 31 29 31H26.75ZM15.5 31C15.098 31 14.7475 30.8505 14.4485 30.5515C14.1495 30.2525 14 29.902 14 29.5V14.5C14 14.098 14.1495 13.7475 14.4485 13.4485C14.7475 13.1495 15.098 13 15.5 13H17.75C18.152 13 18.5025 13.1495 18.8015 13.4485C19.1005 13.7475 19.25 14.098 19.25 14.5V29.5C19.25 29.902 19.1005 30.2525 18.8015 30.5515C18.5025 30.8505 18.152 31 17.75 31H15.5Z" fill="#E25F47"/>
</svg>
