<svg width="53" height="50" viewBox="0 0 53 50" fill="none" xmlns="http://www.w3.org/2000/svg">
<path d="M38.2436 0.534068C38.4009 0.43132 38.5839 0.374948 38.7718 0.371411C38.9596 0.367873 39.1446 0.417312 39.3056 0.514065C39.4667 0.610819 39.5972 0.750973 39.6822 0.918471C39.7673 1.08597 39.8034 1.27404 39.7865 1.46114L38.3899 17.6116C38.3757 17.7777 38.4031 17.9448 38.4699 18.0975C38.5366 18.2503 38.6405 18.384 38.772 18.4864L51.9323 28.7272C52.0838 28.8451 52.1982 29.0041 52.2618 29.1853C52.3253 29.3665 52.3354 29.5622 52.2907 29.7489C52.246 29.9357 52.1486 30.1056 52.0099 30.2384C51.8712 30.3712 51.6973 30.4613 51.5088 30.498L35.5014 33.6182C35.3314 33.6514 35.1729 33.7282 35.0414 33.841C34.91 33.9539 34.8102 34.099 34.7517 34.262L29.3429 49.3411C29.2791 49.5193 29.166 49.6758 29.0167 49.7923C28.8675 49.9088 28.6883 49.9805 28.4999 49.9992C28.3115 50.0178 28.1217 49.9826 27.9525 49.8976C27.7833 49.8127 27.6418 49.6814 27.5442 49.5191L18.9531 35.2912C18.8689 35.1517 18.7518 35.0349 18.6121 34.9509C18.4724 34.867 18.3144 34.8185 18.1517 34.8096L1.55408 33.9027C1.36536 33.8923 1.18346 33.8286 1.02944 33.7191C0.875424 33.6096 0.755602 33.4586 0.683863 33.2838C0.612124 33.1089 0.591403 32.9173 0.624102 32.7312C0.656801 32.545 0.741585 32.3719 0.868623 32.232L11.6433 20.3771C11.7598 20.2489 11.8411 20.0927 11.879 19.9236C11.917 19.7546 11.9104 19.5786 11.8598 19.4129L7.09656 3.81588C7.0404 3.63227 7.03829 3.43638 7.09048 3.2516C7.14266 3.06682 7.24694 2.90097 7.39086 2.77387C7.53477 2.64676 7.71223 2.56378 7.90205 2.53483C8.09186 2.50587 8.28599 2.53218 8.46126 2.6106L23.6817 9.42272C23.8339 9.49079 24.0007 9.51974 24.1669 9.50694C24.3331 9.49414 24.4935 9.43998 24.6334 9.34941L38.2436 0.534068Z" fill="#F0D093"/>
</svg>
