<svg width="44" height="44" viewBox="0 0 44 44" fill="none" xmlns="http://www.w3.org/2000/svg">
<circle cx="22" cy="22" r="21" fill="#F9F9FA" stroke="#E25F47" stroke-width="2"/>
<path d="M26.75 31C26.348 31 25.9975 30.8505 25.6985 30.5515C25.3995 30.2525 25.25 29.902 25.25 29.5V14.5C25.25 14.098 25.3995 13.7475 25.6985 13.4485C25.9975 13.1495 26.348 13 26.75 13H29C29.402 13 29.7525 13.1495 30.0515 13.4485C30.3505 13.7475 30.5 14.098 30.5 14.5V29.5C30.5 29.902 30.3505 30.2525 30.0515 30.5515C29.7525 30.8505 29.402 31 29 31H26.75ZM15.5 31C15.098 31 14.7475 30.8505 14.4485 30.5515C14.1495 30.2525 14 29.902 14 29.5V14.5C14 14.098 14.1495 13.7475 14.4485 13.4485C14.7475 13.1495 15.098 13 15.5 13H17.75C18.152 13 18.5025 13.1495 18.8015 13.4485C19.1005 13.7475 19.25 14.098 19.25 14.5V29.5C19.25 29.902 19.1005 30.2525 18.8015 30.5515C18.5025 30.8505 18.152 31 17.75 31H15.5Z" fill="#E25F47"/>
<path d="M14 26.9091C14 26.4705 14.1329 26.0882 14.3987 25.762C14.6644 25.4358 14.976 25.2727 15.3333 25.2727H28.6667C29.024 25.2727 29.3356 25.4358 29.6013 25.762C29.8671 26.0882 30 26.4705 30 26.9091V29.3636C30 29.8022 29.8671 30.1845 29.6013 30.5107C29.3356 30.8369 29.024 31 28.6667 31L15.3333 31C14.976 31 14.6644 30.8369 14.3987 30.5107C14.1329 30.1845 14 29.8022 14 29.3636V26.9091ZM14 14.6364C14 14.1978 14.1329 13.8155 14.3987 13.4893C14.6644 13.1631 14.976 13 15.3333 13L28.6667 13C29.024 13 29.3356 13.1631 29.6013 13.4893C29.8671 13.8155 30 14.1978 30 14.6364V17.0909C30 17.5295 29.8671 17.9118 29.6013 18.238C29.3356 18.5642 29.4438 32.9781 28.6667 25.2727L15.3333 26.4326C14.976 26.4326 14.6644 18.5642 14.3987 18.238C14.1329 17.9118 14 17.5295 14 17.0909V14.6364Z" fill="#E25F47"/>
</svg>
